<svg xmlns="http://www.w3.org/2000/svg" width="49.84" height="47.97" viewBox="0 0 49.84 47.97">
  <defs>
    <style>
      .cls-1 {
        fill: #2c2c2c;
        fill-rule: evenodd;
      }
    </style>
  </defs>
  <path id="Home" class="cls-1" d="M6683.64,3406.07v-0.34a2.885,2.885,0,1,1,5.77,0v5.49l4.7,4.19c1.65,1.46,1.2,2.66-1.02,2.66h-3.68v22.74a2,2,0,0,1-2.01,2.02h-34.45a2.014,2.014,0,0,1-2.02-2.02v-22.74h-3.7c-2.21,0-2.67-1.2-1.02-2.66l22.47-20.02a2.288,2.288,0,0,1,2.97,0Zm-7.7,16.76v14h7.7v-14h-7.7Z" transform="translate(-6645.25 -3394.84)"/>
</svg>
