<svg xmlns="http://www.w3.org/2000/svg" width="53.12" height="51.03" viewBox="0 0 53.12 51.03">
  <defs>
    <style>
      .cls-1 {
        fill: #2c2c2c;
        fill-rule: evenodd;
      }
    </style>
  </defs>
  <path id="Literature" class="cls-1" d="M6970.81,3385.34a16.6,16.6,0,0,1,12.14,5.15,22.276,22.276,0,0,1,4.99-3.61c8.33-3.84,21.28-.51,21.54,7.97,0.13,12.28,0,24.57,0,36.85-0.03,2.06-2.42,3.05-4.49,1.77-4.07-2.48-8.48-4.79-13.32-4.8-3.03-.01-5.28,2.53-6.25,5.82a4.106,4.106,0,0,1-1.89,1.78,2.7,2.7,0,0,1-.41.06c-1.45.08-2.59-1.9-2.59-1.9-0.45-1.83-1.06-3.75-2.63-4.82-3.62-2.46-8.3-.35-11.66,1.11-2.44,1.06-4.43,3.31-7.01,3.51a2.612,2.612,0,0,1-2.74-2.45c-0.2-12.26,0-24.53,0-36.79,0.05-5.44,6.55-8.64,10.91-9.38A19.523,19.523,0,0,1,6970.81,3385.34Zm-0.25,5.09c-3,.04-6.17.7-8.22,2.96a2.528,2.528,0,0,0-.77,1.62v32.28c0.23-.12.46-0.23,0.7-0.35,5.83-2.85,12.63-5.17,18.18-1.74v-29.55A11.312,11.312,0,0,0,6970.56,3390.43Zm24.63,0a11.308,11.308,0,0,0-9.66,5.21v29.56a7.734,7.734,0,0,1,1.8-.89c5.64-2.11,11.82.34,16.78,2.83l0.29,0.15c0-10.79.4-21.59,0-32.37C7004.21,3391.79,6999.42,3390.42,6995.19,3390.43Z" transform="translate(-6956.41 -3385.31)"/>
</svg>
