<svg xmlns="http://www.w3.org/2000/svg" width="60.43" height="43.84" viewBox="0 0 60.43 43.84">
  <defs>
    <style>
      .cls-1 {
        fill: #2c2c2c;
        fill-rule: evenodd;
      }
    </style>
  </defs>
  <path id="Menu" class="cls-1" d="M6854.91,3432.76h-53.64c-1.78-.07-1.92-0.49-2.43-0.98a3.632,3.632,0,0,1,2.43-6.02h53.64c0.09,0,.18.01,0.27,0.01,1.77,0.2,1.88.64,2.34,1.16A3.627,3.627,0,0,1,6854.91,3432.76Zm0-18.43h-53.64c-1.78-.06-1.92-0.49-2.43-0.97a3.639,3.639,0,0,1,2.43-6.03h53.64a2.437,2.437,0,0,0,.27.01c1.77,0.21,1.88.64,2.34,1.17A3.62,3.62,0,0,1,6854.91,3414.33Zm0-18.42h-53.64c-1.96-.08-2.07-0.57-2.61-1.17a3.627,3.627,0,0,1,2.61-5.83h53.64c0.09,0,.18.01,0.27,0.01C6858.59,3389.31,6859.87,3395.72,6854.91,3395.91Z" transform="translate(-6797.88 -3388.91)"/>
</svg>
