<svg xmlns="http://www.w3.org/2000/svg" width="68" height="68" viewBox="0 0 68 68">
  <defs>
    <style>
      .cls-1 {
        fill: #2c2c2c;
        fill-rule: evenodd;
      }
    </style>
  </defs>
  <path id="Search" class="cls-1" d="M7370.86,3425.24a26.864,26.864,0,0,1-42.48-26.61,26.551,26.551,0,0,1,2.31-6.86,26.876,26.876,0,0,1,19.99-14.62,27.607,27.607,0,0,1,3.74-.31h0.7a27.607,27.607,0,0,1,3.74.31,26.8,26.8,0,0,1,7.27,2.2,27.037,27.037,0,0,1,12.87,12.72,26.893,26.893,0,0,1,2.29,7.22,27.356,27.356,0,0,1,.1,8.18,26.946,26.946,0,0,1-2.39,7.9,27.6,27.6,0,0,1-2.71,4.44l19.59,19.59-5.43,5.43Zm-16.39-44.56a24.8,24.8,0,0,0-3.21.26,23.036,23.036,0,0,0-12.38,39.45,23.235,23.235,0,0,0,7.19,4.66,23.137,23.137,0,0,0,17.41,0,23.052,23.052,0,0,0,1.02-42.22,22.953,22.953,0,0,0-6.22-1.89,24.659,24.659,0,0,0-3.21-.26h-0.6Z" transform="translate(-7327.88 -3376.84)"/>
</svg>
